<mxfile host="app.diagrams.net" modified="2024-01-17T14:49:01.479Z" agent="Mozilla/5.0 (Windows NT 10.0; Win64; x64) AppleWebKit/537.36 (KHTML, like Gecko) Chrome/120.0.0.0 Safari/537.36" etag="9zTeCZrtWYac9WPIAy7E" version="22.1.18" type="device">
  <diagram name="Page-1" id="-d8JDkyyJbdP6G4lQLtd">
    <mxGraphModel dx="3561" dy="2549" grid="1" gridSize="10" guides="1" tooltips="1" connect="1" arrows="1" fold="1" page="1" pageScale="1" pageWidth="827" pageHeight="1169" math="0" shadow="0">
      <root>
        <mxCell id="0" />
        <mxCell id="1" parent="0" />
        <mxCell id="pqKyCdqcijLwKparUM79-2" value="Instruction&lt;br style=&quot;border-color: var(--border-color);&quot;&gt;Memory" style="rounded=0;whiteSpace=wrap;html=1;movable=1;resizable=1;rotatable=1;deletable=1;editable=1;locked=0;connectable=1;" parent="1" vertex="1">
          <mxGeometry x="120" y="250" width="100" height="160" as="geometry" />
        </mxCell>
        <mxCell id="pqKyCdqcijLwKparUM79-3" value="Register&lt;br&gt;File" style="rounded=0;whiteSpace=wrap;html=1;" parent="1" vertex="1">
          <mxGeometry x="390" y="230" width="120" height="180" as="geometry" />
        </mxCell>
        <mxCell id="pqKyCdqcijLwKparUM79-6" value="Extender" style="shape=manualInput;whiteSpace=wrap;html=1;" parent="1" vertex="1">
          <mxGeometry x="390" y="535" width="120" height="60" as="geometry" />
        </mxCell>
        <mxCell id="pqKyCdqcijLwKparUM79-14" value="&lt;font style=&quot;font-size: 17px;&quot;&gt;&amp;nbsp; &amp;nbsp; &amp;nbsp; +&lt;/font&gt;" style="shape=stencil(tZXRjoIwEEW/pq+bQsPq6wb1PyqOS2NtSdvV3b93oGCs0I0IJISkc7mHIb1DCcttySsgKS0J25A0TSjFO66vT2tuKyicL164EXwvwSvWGX2Cqzi4liFUCUa4WmVbQr/wmfpieaGVQojQygbKg44wLhR66a+Hta//C1YV8s/gwLRNNtXd68yPbAFqskSnIbPre95OZ6KGvSaL7NQ81ORNJsuxEgsxy/e8OH0b/aMOfVdUO2oDA8JdFlL6AYt9YMXruesJnXzWF/h/moawnVsK9eC+/wxaP5sKWI0FPGWMTvOvx9qz0P+ZTfOzsf7Q/sL+FVLbaHKwHgkPHguDmWs8vcQ2VX+ONIUb);whiteSpace=wrap;html=1;" parent="1" vertex="1">
          <mxGeometry x="150" y="568" width="60" height="130" as="geometry" />
        </mxCell>
        <mxCell id="pqKyCdqcijLwKparUM79-19" value="" style="group" parent="1" vertex="1" connectable="0">
          <mxGeometry x="-50" y="260" width="70" height="120" as="geometry" />
        </mxCell>
        <mxCell id="pqKyCdqcijLwKparUM79-4" value="PC&lt;br&gt;Register" style="rounded=0;whiteSpace=wrap;html=1;movable=1;resizable=1;rotatable=1;deletable=1;editable=1;locked=0;connectable=1;" parent="pqKyCdqcijLwKparUM79-19" vertex="1">
          <mxGeometry width="70" height="110" as="geometry" />
        </mxCell>
        <mxCell id="6ZzgKOErrP5oYCzK0KQO-4" value="" style="triangle;whiteSpace=wrap;html=1;rotation=-90;" parent="pqKyCdqcijLwKparUM79-19" vertex="1">
          <mxGeometry x="44" y="85" width="20" height="30" as="geometry" />
        </mxCell>
        <mxCell id="pqKyCdqcijLwKparUM79-21" value="" style="edgeStyle=segmentEdgeStyle;endArrow=none;html=1;curved=0;rounded=0;endSize=8;startSize=8;endFill=0;strokeWidth=3;entryX=0;entryY=0.1;entryDx=0;entryDy=0;entryPerimeter=0;" parent="1" target="pqKyCdqcijLwKparUM79-14" edge="1">
          <mxGeometry width="50" height="50" relative="1" as="geometry">
            <mxPoint x="20" y="280" as="sourcePoint" />
            <mxPoint x="140" y="460" as="targetPoint" />
            <Array as="points">
              <mxPoint x="20" y="280" />
              <mxPoint x="70" y="280" />
              <mxPoint x="70" y="580" />
              <mxPoint x="150" y="580" />
            </Array>
          </mxGeometry>
        </mxCell>
        <mxCell id="pqKyCdqcijLwKparUM79-23" value="&lt;font style=&quot;font-size: 17px;&quot;&gt;4&lt;/font&gt;" style="text;html=1;strokeColor=none;fillColor=none;align=center;verticalAlign=middle;whiteSpace=wrap;rounded=0;" parent="1" vertex="1">
          <mxGeometry x="80" y="668" width="60" height="30" as="geometry" />
        </mxCell>
        <mxCell id="pqKyCdqcijLwKparUM79-25" value="" style="edgeStyle=segmentEdgeStyle;endArrow=none;html=1;curved=0;rounded=0;endSize=8;startSize=8;endFill=0;strokeWidth=3;" parent="1" edge="1">
          <mxGeometry width="50" height="50" relative="1" as="geometry">
            <mxPoint x="120" y="682.86" as="sourcePoint" />
            <mxPoint x="150" y="682.86" as="targetPoint" />
            <Array as="points">
              <mxPoint x="150" y="682.86" />
            </Array>
          </mxGeometry>
        </mxCell>
        <mxCell id="pqKyCdqcijLwKparUM79-26" value="&lt;font style=&quot;font-size: 17px;&quot;&gt;&amp;nbsp; &amp;nbsp; &amp;nbsp; +&lt;/font&gt;" style="shape=stencil(tZXRjoIwEEW/pq+bQsPq6wb1PyqOS2NtSdvV3b93oGCs0I0IJISkc7mHIb1DCcttySsgKS0J25A0TSjFO66vT2tuKyicL164EXwvwSvWGX2Cqzi4liFUCUa4WmVbQr/wmfpieaGVQojQygbKg44wLhR66a+Hta//C1YV8s/gwLRNNtXd68yPbAFqskSnIbPre95OZ6KGvSaL7NQ81ORNJsuxEgsxy/e8OH0b/aMOfVdUO2oDA8JdFlL6AYt9YMXruesJnXzWF/h/moawnVsK9eC+/wxaP5sKWI0FPGWMTvOvx9qz0P+ZTfOzsf7Q/sL+FVLbaHKwHgkPHguDmWs8vcQ2VX+ONIUb);whiteSpace=wrap;html=1;" parent="1" vertex="1">
          <mxGeometry x="690" y="455" width="60" height="130" as="geometry" />
        </mxCell>
        <mxCell id="pqKyCdqcijLwKparUM79-27" value="" style="edgeStyle=segmentEdgeStyle;endArrow=none;html=1;curved=0;rounded=0;endSize=8;startSize=8;endFill=0;strokeWidth=3;exitX=1.003;exitY=0.575;exitDx=0;exitDy=0;exitPerimeter=0;" parent="1" source="pqKyCdqcijLwKparUM79-6" edge="1">
          <mxGeometry width="50" height="50" relative="1" as="geometry">
            <mxPoint x="660" y="569.86" as="sourcePoint" />
            <mxPoint x="690" y="569.86" as="targetPoint" />
            <Array as="points">
              <mxPoint x="690" y="570" />
            </Array>
          </mxGeometry>
        </mxCell>
        <mxCell id="pqKyCdqcijLwKparUM79-28" value="" style="html=1;rounded=0;edgeStyle=orthogonalEdgeStyle;strokeWidth=3;endArrow=none;endFill=0;" parent="1" edge="1">
          <mxGeometry width="100" relative="1" as="geometry">
            <mxPoint x="70" y="470" as="sourcePoint" />
            <mxPoint x="690" y="470" as="targetPoint" />
            <Array as="points">
              <mxPoint x="688" y="470" />
            </Array>
          </mxGeometry>
        </mxCell>
        <mxCell id="pqKyCdqcijLwKparUM79-29" value="ImmExt" style="text;html=1;align=center;verticalAlign=middle;resizable=0;points=[];autosize=1;strokeColor=none;fillColor=none;" parent="1" vertex="1">
          <mxGeometry x="510" y="538" width="60" height="30" as="geometry" />
        </mxCell>
        <mxCell id="pqKyCdqcijLwKparUM79-32" value="" style="edgeStyle=orthogonalEdgeStyle;rounded=0;orthogonalLoop=1;jettySize=auto;html=1;entryX=0;entryY=0.136;entryDx=0;entryDy=0;entryPerimeter=0;strokeWidth=3;endArrow=none;endFill=0;" parent="1" source="pqKyCdqcijLwKparUM79-31" target="pqKyCdqcijLwKparUM79-4" edge="1">
          <mxGeometry relative="1" as="geometry">
            <mxPoint x="-90" y="275" as="targetPoint" />
          </mxGeometry>
        </mxCell>
        <mxCell id="pqKyCdqcijLwKparUM79-31" value="" style="shape=trapezoid;perimeter=trapezoidPerimeter;whiteSpace=wrap;html=1;fixedSize=1;rotation=90;" parent="1" vertex="1">
          <mxGeometry x="-160" y="263.75" width="90" height="22.5" as="geometry" />
        </mxCell>
        <mxCell id="pqKyCdqcijLwKparUM79-33" value="" style="edgeStyle=segmentEdgeStyle;endArrow=none;html=1;curved=0;rounded=0;endSize=8;startSize=8;entryX=0.25;entryY=1;entryDx=0;entryDy=0;strokeWidth=3;endFill=0;" parent="1" source="pqKyCdqcijLwKparUM79-14" target="pqKyCdqcijLwKparUM79-31" edge="1">
          <mxGeometry width="50" height="50" relative="1" as="geometry">
            <mxPoint x="210" y="568" as="sourcePoint" />
            <mxPoint x="-220" y="420" as="targetPoint" />
            <Array as="points">
              <mxPoint x="260" y="630" />
              <mxPoint x="260" y="730" />
              <mxPoint x="-150" y="730" />
              <mxPoint x="-150" y="253" />
            </Array>
          </mxGeometry>
        </mxCell>
        <mxCell id="pqKyCdqcijLwKparUM79-34" value="" style="edgeStyle=segmentEdgeStyle;endArrow=none;html=1;curved=0;rounded=0;endSize=8;startSize=8;entryX=0.75;entryY=1;entryDx=0;entryDy=0;exitX=1;exitY=0.5;exitDx=0;exitDy=0;strokeWidth=3;endFill=0;" parent="1" source="pqKyCdqcijLwKparUM79-26" target="pqKyCdqcijLwKparUM79-31" edge="1">
          <mxGeometry width="50" height="50" relative="1" as="geometry">
            <mxPoint x="-240" y="700" as="sourcePoint" />
            <mxPoint x="-340" y="350" as="targetPoint" />
            <Array as="points">
              <mxPoint x="880" y="520" />
              <mxPoint x="880" y="760" />
              <mxPoint x="-180" y="760" />
              <mxPoint x="-180" y="298" />
            </Array>
          </mxGeometry>
        </mxCell>
        <mxCell id="pqKyCdqcijLwKparUM79-35" value="PCPlus4" style="text;html=1;align=center;verticalAlign=middle;resizable=0;points=[];autosize=1;strokeColor=none;fillColor=none;" parent="1" vertex="1">
          <mxGeometry x="210" y="600" width="70" height="30" as="geometry" />
        </mxCell>
        <mxCell id="pqKyCdqcijLwKparUM79-36" value="PCTarget" style="text;html=1;align=center;verticalAlign=middle;resizable=0;points=[];autosize=1;strokeColor=none;fillColor=none;" parent="1" vertex="1">
          <mxGeometry x="750" y="490" width="70" height="30" as="geometry" />
        </mxCell>
        <mxCell id="pqKyCdqcijLwKparUM79-37" value="&lt;font style=&quot;font-size: 14px;&quot;&gt;&amp;nbsp; &amp;nbsp; &amp;nbsp; &amp;nbsp; ALU&lt;/font&gt;" style="shape=stencil(tZXRjoIwEEW/pq+bQsPq6wb1PyqOS2NtSdvV3b93oGCs0I0IJISkc7mHIb1DCcttySsgKS0J25A0TSjFO66vT2tuKyicL164EXwvwSvWGX2Cqzi4liFUCUa4WmVbQr/wmfpieaGVQojQygbKg44wLhR66a+Hta//C1YV8s/gwLRNNtXd68yPbAFqskSnIbPre95OZ6KGvSaL7NQ81ORNJsuxEgsxy/e8OH0b/aMOfVdUO2oDA8JdFlL6AYt9YMXruesJnXzWF/h/moawnVsK9eC+/wxaP5sKWI0FPGWMTvOvx9qz0P+ZTfOzsf7Q/sL+FVLbaHKwHgkPHguDmWs8vcQ2VX+ONIUb);whiteSpace=wrap;html=1;movable=0;resizable=0;rotatable=0;deletable=0;editable=0;locked=1;connectable=0;" parent="1" vertex="1">
          <mxGeometry x="690" y="250" width="60" height="130" as="geometry" />
        </mxCell>
        <mxCell id="pqKyCdqcijLwKparUM79-38" value="" style="edgeStyle=segmentEdgeStyle;endArrow=none;html=1;curved=0;rounded=0;entryX=0;entryY=0.077;entryDx=0;entryDy=0;entryPerimeter=0;endFill=0;strokeWidth=3;" parent="1" target="pqKyCdqcijLwKparUM79-37" edge="1">
          <mxGeometry width="50" height="50" relative="1" as="geometry">
            <mxPoint x="510" y="260" as="sourcePoint" />
            <mxPoint x="680" y="260" as="targetPoint" />
          </mxGeometry>
        </mxCell>
        <mxCell id="pqKyCdqcijLwKparUM79-39" value="" style="shape=trapezoid;perimeter=trapezoidPerimeter;whiteSpace=wrap;html=1;fixedSize=1;rotation=90;" parent="1" vertex="1">
          <mxGeometry x="560" y="350" width="95" height="30" as="geometry" />
        </mxCell>
        <mxCell id="pqKyCdqcijLwKparUM79-41" value="" style="endArrow=none;html=1;rounded=0;edgeStyle=orthogonalEdgeStyle;entryX=0.238;entryY=1.014;entryDx=0;entryDy=0;entryPerimeter=0;endFill=0;strokeWidth=3;" parent="1" target="pqKyCdqcijLwKparUM79-39" edge="1">
          <mxGeometry width="50" height="50" relative="1" as="geometry">
            <mxPoint x="510" y="339.5" as="sourcePoint" />
            <mxPoint x="620" y="340" as="targetPoint" />
          </mxGeometry>
        </mxCell>
        <mxCell id="pqKyCdqcijLwKparUM79-43" value="" style="endArrow=none;html=1;rounded=0;edgeStyle=orthogonalEdgeStyle;exitX=0.5;exitY=0;exitDx=0;exitDy=0;strokeWidth=3;endFill=0;" parent="1" source="pqKyCdqcijLwKparUM79-39" edge="1">
          <mxGeometry width="50" height="50" relative="1" as="geometry">
            <mxPoint x="630" y="369.5" as="sourcePoint" />
            <mxPoint x="690" y="365" as="targetPoint" />
            <Array as="points">
              <mxPoint x="690" y="365" />
            </Array>
          </mxGeometry>
        </mxCell>
        <mxCell id="pqKyCdqcijLwKparUM79-44" value="SrcB" style="text;html=1;align=center;verticalAlign=middle;resizable=0;points=[];autosize=1;strokeColor=none;fillColor=none;" parent="1" vertex="1">
          <mxGeometry x="640" y="340" width="50" height="30" as="geometry" />
        </mxCell>
        <mxCell id="pqKyCdqcijLwKparUM79-45" value="SrcA" style="text;html=1;align=center;verticalAlign=middle;resizable=0;points=[];autosize=1;strokeColor=none;fillColor=none;" parent="1" vertex="1">
          <mxGeometry x="640" y="233.75" width="50" height="30" as="geometry" />
        </mxCell>
        <mxCell id="pqKyCdqcijLwKparUM79-46" value="Data&lt;br&gt;Memory" style="rounded=0;whiteSpace=wrap;html=1;" parent="1" vertex="1">
          <mxGeometry x="847" y="250" width="120" height="190" as="geometry" />
        </mxCell>
        <mxCell id="pqKyCdqcijLwKparUM79-48" value="" style="endArrow=none;html=1;rounded=0;edgeStyle=orthogonalEdgeStyle;entryX=0;entryY=0.895;entryDx=0;entryDy=0;entryPerimeter=0;strokeWidth=3;endFill=0;" parent="1" target="pqKyCdqcijLwKparUM79-46" edge="1">
          <mxGeometry width="50" height="50" relative="1" as="geometry">
            <mxPoint x="560" y="340" as="sourcePoint" />
            <mxPoint x="870" y="420" as="targetPoint" />
            <Array as="points">
              <mxPoint x="549" y="420" />
            </Array>
          </mxGeometry>
        </mxCell>
        <mxCell id="pqKyCdqcijLwKparUM79-49" value="WriteData" style="text;html=1;strokeColor=none;fillColor=none;align=center;verticalAlign=middle;whiteSpace=wrap;rounded=0;" parent="1" vertex="1">
          <mxGeometry x="787" y="390" width="60" height="30" as="geometry" />
        </mxCell>
        <mxCell id="pqKyCdqcijLwKparUM79-50" value="" style="endArrow=none;html=1;rounded=0;edgeStyle=orthogonalEdgeStyle;entryX=0.75;entryY=1;entryDx=0;entryDy=0;strokeWidth=3;endFill=0;" parent="1" target="pqKyCdqcijLwKparUM79-39" edge="1">
          <mxGeometry width="50" height="50" relative="1" as="geometry">
            <mxPoint x="570" y="570" as="sourcePoint" />
            <mxPoint x="570" y="390" as="targetPoint" />
            <Array as="points">
              <mxPoint x="570" y="389" />
            </Array>
          </mxGeometry>
        </mxCell>
        <mxCell id="pqKyCdqcijLwKparUM79-51" value="WD" style="text;html=1;strokeColor=none;fillColor=none;align=center;verticalAlign=middle;whiteSpace=wrap;rounded=0;" parent="1" vertex="1">
          <mxGeometry x="847" y="400" width="40" height="30" as="geometry" />
        </mxCell>
        <mxCell id="pqKyCdqcijLwKparUM79-52" value="" style="endArrow=none;html=1;rounded=0;edgeStyle=orthogonalEdgeStyle;strokeWidth=3;endFill=0;" parent="1" edge="1">
          <mxGeometry width="50" height="50" relative="1" as="geometry">
            <mxPoint x="750" y="320" as="sourcePoint" />
            <mxPoint x="847" y="320" as="targetPoint" />
            <Array as="points">
              <mxPoint x="840" y="320" />
              <mxPoint x="840" y="320" />
            </Array>
          </mxGeometry>
        </mxCell>
        <mxCell id="pqKyCdqcijLwKparUM79-53" value="ALUResult" style="text;html=1;align=center;verticalAlign=middle;resizable=0;points=[];autosize=1;strokeColor=none;fillColor=none;" parent="1" vertex="1">
          <mxGeometry x="750" y="293.75" width="80" height="30" as="geometry" />
        </mxCell>
        <mxCell id="pqKyCdqcijLwKparUM79-54" value="A" style="text;html=1;strokeColor=none;fillColor=none;align=center;verticalAlign=middle;whiteSpace=wrap;rounded=0;" parent="1" vertex="1">
          <mxGeometry x="840" y="305" width="30" height="30" as="geometry" />
        </mxCell>
        <mxCell id="pqKyCdqcijLwKparUM79-55" value="" style="triangle;whiteSpace=wrap;html=1;rotation=-90;" parent="1" vertex="1">
          <mxGeometry x="942" y="415" width="20" height="30" as="geometry" />
        </mxCell>
        <mxCell id="pqKyCdqcijLwKparUM79-56" value="" style="triangle;whiteSpace=wrap;html=1;rotation=-90;" parent="1" vertex="1">
          <mxGeometry x="484" y="385" width="20" height="30" as="geometry" />
        </mxCell>
        <mxCell id="pqKyCdqcijLwKparUM79-57" value="WE" style="text;html=1;strokeColor=none;fillColor=none;align=center;verticalAlign=middle;whiteSpace=wrap;rounded=0;" parent="1" vertex="1">
          <mxGeometry x="877" y="250" width="60" height="30" as="geometry" />
        </mxCell>
        <mxCell id="pqKyCdqcijLwKparUM79-58" value="RD" style="text;html=1;strokeColor=none;fillColor=none;align=center;verticalAlign=middle;whiteSpace=wrap;rounded=0;" parent="1" vertex="1">
          <mxGeometry x="937" y="300" width="30" height="30" as="geometry" />
        </mxCell>
        <mxCell id="pqKyCdqcijLwKparUM79-59" value="" style="shape=trapezoid;perimeter=trapezoidPerimeter;whiteSpace=wrap;html=1;fixedSize=1;rotation=90;" parent="1" vertex="1">
          <mxGeometry x="1020" y="306" width="95" height="28" as="geometry" />
        </mxCell>
        <mxCell id="pqKyCdqcijLwKparUM79-60" value="" style="endArrow=none;html=1;rounded=0;edgeStyle=orthogonalEdgeStyle;exitX=0.5;exitY=0;exitDx=0;exitDy=0;strokeWidth=3;endFill=0;" parent="1" source="pqKyCdqcijLwKparUM79-59" edge="1">
          <mxGeometry width="50" height="50" relative="1" as="geometry">
            <mxPoint x="1127.0040000000004" y="320.2799999999999" as="sourcePoint" />
            <mxPoint x="390" y="380" as="targetPoint" />
            <Array as="points">
              <mxPoint x="1140" y="320" />
              <mxPoint x="1140" y="680" />
              <mxPoint x="320" y="680" />
              <mxPoint x="320" y="380" />
            </Array>
          </mxGeometry>
        </mxCell>
        <mxCell id="pqKyCdqcijLwKparUM79-61" value="WD3" style="text;html=1;strokeColor=none;fillColor=none;align=center;verticalAlign=middle;whiteSpace=wrap;rounded=0;" parent="1" vertex="1">
          <mxGeometry x="380" y="360" width="60" height="30" as="geometry" />
        </mxCell>
        <mxCell id="pqKyCdqcijLwKparUM79-62" value="Result" style="text;html=1;align=center;verticalAlign=middle;resizable=0;points=[];autosize=1;strokeColor=none;fillColor=none;" parent="1" vertex="1">
          <mxGeometry x="1080" y="293.75" width="60" height="30" as="geometry" />
        </mxCell>
        <mxCell id="pqKyCdqcijLwKparUM79-63" value="RD1" style="text;html=1;strokeColor=none;fillColor=none;align=center;verticalAlign=middle;whiteSpace=wrap;rounded=0;" parent="1" vertex="1">
          <mxGeometry x="465" y="250" width="50" height="30" as="geometry" />
        </mxCell>
        <mxCell id="pqKyCdqcijLwKparUM79-64" value="RD2" style="text;html=1;strokeColor=none;fillColor=none;align=center;verticalAlign=middle;whiteSpace=wrap;rounded=0;" parent="1" vertex="1">
          <mxGeometry x="465" y="330" width="50" height="30" as="geometry" />
        </mxCell>
        <mxCell id="pqKyCdqcijLwKparUM79-65" value="WE3" style="text;html=1;strokeColor=none;fillColor=none;align=center;verticalAlign=middle;whiteSpace=wrap;rounded=0;" parent="1" vertex="1">
          <mxGeometry x="420" y="230" width="60" height="30" as="geometry" />
        </mxCell>
        <mxCell id="pqKyCdqcijLwKparUM79-66" value="" style="endArrow=none;html=1;rounded=0;edgeStyle=orthogonalEdgeStyle;entryX=0;entryY=0.188;entryDx=0;entryDy=0;entryPerimeter=0;strokeWidth=3;endFill=0;" parent="1" target="pqKyCdqcijLwKparUM79-2" edge="1">
          <mxGeometry width="50" height="50" relative="1" as="geometry">
            <mxPoint x="70" y="280" as="sourcePoint" />
            <mxPoint x="119.99999999999999" y="230" as="targetPoint" />
            <Array as="points">
              <mxPoint x="120" y="280" />
            </Array>
          </mxGeometry>
        </mxCell>
        <mxCell id="pqKyCdqcijLwKparUM79-67" value="A" style="text;html=1;strokeColor=none;fillColor=none;align=center;verticalAlign=middle;whiteSpace=wrap;rounded=0;" parent="1" vertex="1">
          <mxGeometry x="120" y="263.75" width="20" height="30" as="geometry" />
        </mxCell>
        <mxCell id="pqKyCdqcijLwKparUM79-70" value="RD" style="text;html=1;strokeColor=none;fillColor=none;align=center;verticalAlign=middle;whiteSpace=wrap;rounded=0;" parent="1" vertex="1">
          <mxGeometry x="180" y="263.75" width="40" height="30" as="geometry" />
        </mxCell>
        <mxCell id="pqKyCdqcijLwKparUM79-71" value="" style="endArrow=none;html=1;rounded=0;edgeStyle=orthogonalEdgeStyle;strokeWidth=3;endFill=0;" parent="1" edge="1">
          <mxGeometry width="50" height="50" relative="1" as="geometry">
            <mxPoint x="220" y="280" as="sourcePoint" />
            <mxPoint x="350" y="580" as="targetPoint" />
            <Array as="points">
              <mxPoint x="220" y="280" />
            </Array>
          </mxGeometry>
        </mxCell>
        <mxCell id="pqKyCdqcijLwKparUM79-72" value="Instr" style="text;html=1;align=center;verticalAlign=middle;resizable=0;points=[];autosize=1;strokeColor=none;fillColor=none;" parent="1" vertex="1">
          <mxGeometry x="220" y="256.25" width="50" height="30" as="geometry" />
        </mxCell>
        <mxCell id="pqKyCdqcijLwKparUM79-73" value="" style="endArrow=none;html=1;rounded=0;edgeStyle=orthogonalEdgeStyle;endFill=0;entryX=0;entryY=0.75;entryDx=0;entryDy=0;" parent="1" target="pqKyCdqcijLwKparUM79-6" edge="1">
          <mxGeometry width="50" height="50" relative="1" as="geometry">
            <mxPoint x="350" y="578" as="sourcePoint" />
            <mxPoint x="390" y="578" as="targetPoint" />
            <Array as="points">
              <mxPoint x="350" y="580" />
            </Array>
          </mxGeometry>
        </mxCell>
        <mxCell id="pqKyCdqcijLwKparUM79-74" value="31:7" style="text;html=1;align=center;verticalAlign=middle;resizable=0;points=[];autosize=1;strokeColor=none;fillColor=none;" parent="1" vertex="1">
          <mxGeometry x="340" y="555" width="50" height="30" as="geometry" />
        </mxCell>
        <mxCell id="pqKyCdqcijLwKparUM79-76" value="" style="endArrow=none;html=1;rounded=0;edgeStyle=orthogonalEdgeStyle;entryX=0.75;entryY=1;entryDx=0;entryDy=0;strokeWidth=3;endFill=0;" parent="1" target="pqKyCdqcijLwKparUM79-59" edge="1">
          <mxGeometry width="50" height="50" relative="1" as="geometry">
            <mxPoint x="260" y="630" as="sourcePoint" />
            <mxPoint x="1010" y="460" as="targetPoint" />
            <Array as="points">
              <mxPoint x="1030" y="630" />
              <mxPoint x="1030" y="344" />
            </Array>
          </mxGeometry>
        </mxCell>
        <mxCell id="6ZzgKOErrP5oYCzK0KQO-1" value="" style="endArrow=none;html=1;rounded=0;edgeStyle=orthogonalEdgeStyle;entryX=0.5;entryY=1;entryDx=0;entryDy=0;strokeWidth=3;endFill=0;" parent="1" target="pqKyCdqcijLwKparUM79-59" edge="1">
          <mxGeometry width="50" height="50" relative="1" as="geometry">
            <mxPoint x="967" y="319.62" as="sourcePoint" />
            <mxPoint x="1050" y="319.87" as="targetPoint" />
            <Array as="points">
              <mxPoint x="1011" y="320" />
            </Array>
          </mxGeometry>
        </mxCell>
        <mxCell id="6ZzgKOErrP5oYCzK0KQO-2" value="ReadData" style="text;html=1;align=center;verticalAlign=middle;resizable=0;points=[];autosize=1;strokeColor=none;fillColor=none;" parent="1" vertex="1">
          <mxGeometry x="960" y="293.75" width="80" height="30" as="geometry" />
        </mxCell>
        <mxCell id="6ZzgKOErrP5oYCzK0KQO-3" value="" style="endArrow=none;html=1;rounded=0;edgeStyle=orthogonalEdgeStyle;entryX=0.25;entryY=1;entryDx=0;entryDy=0;strokeWidth=3;endFill=0;" parent="1" target="pqKyCdqcijLwKparUM79-59" edge="1">
          <mxGeometry width="50" height="50" relative="1" as="geometry">
            <mxPoint x="830" y="320" as="sourcePoint" />
            <mxPoint x="1020" y="290" as="targetPoint" />
            <Array as="points">
              <mxPoint x="1030" y="221" />
              <mxPoint x="1030" y="296" />
            </Array>
          </mxGeometry>
        </mxCell>
        <mxCell id="pqKyCdqcijLwKparUM79-15" value="PC" style="text;html=1;strokeColor=none;fillColor=none;align=center;verticalAlign=middle;whiteSpace=wrap;rounded=0;movable=1;resizable=1;rotatable=1;deletable=1;editable=1;locked=0;connectable=1;" parent="1" vertex="1">
          <mxGeometry x="30" y="256.25" width="30" height="30" as="geometry" />
        </mxCell>
        <mxCell id="pqKyCdqcijLwKparUM79-16" value="PCNext" style="text;html=1;strokeColor=none;fillColor=none;align=center;verticalAlign=middle;whiteSpace=wrap;rounded=0;movable=1;resizable=1;rotatable=1;deletable=1;editable=1;locked=0;connectable=1;" parent="1" vertex="1">
          <mxGeometry x="-90" y="250" width="30" height="30" as="geometry" />
        </mxCell>
        <mxCell id="6ZzgKOErrP5oYCzK0KQO-6" value="" style="endArrow=none;html=1;rounded=0;edgeStyle=orthogonalEdgeStyle;endFill=0;entryX=0;entryY=0.75;entryDx=0;entryDy=0;" parent="1" edge="1">
          <mxGeometry width="50" height="50" relative="1" as="geometry">
            <mxPoint x="350" y="291.75" as="sourcePoint" />
            <mxPoint x="390" y="293.75" as="targetPoint" />
            <Array as="points">
              <mxPoint x="350" y="293.75" />
            </Array>
          </mxGeometry>
        </mxCell>
        <mxCell id="6ZzgKOErrP5oYCzK0KQO-7" value="" style="endArrow=none;html=1;rounded=0;edgeStyle=orthogonalEdgeStyle;endFill=0;entryX=0;entryY=0.75;entryDx=0;entryDy=0;" parent="1" edge="1">
          <mxGeometry width="50" height="50" relative="1" as="geometry">
            <mxPoint x="350" y="319" as="sourcePoint" />
            <mxPoint x="390" y="321" as="targetPoint" />
            <Array as="points">
              <mxPoint x="350" y="321" />
            </Array>
          </mxGeometry>
        </mxCell>
        <mxCell id="6ZzgKOErrP5oYCzK0KQO-8" value="" style="endArrow=none;html=1;rounded=0;edgeStyle=orthogonalEdgeStyle;endFill=0;entryX=0;entryY=0.75;entryDx=0;entryDy=0;" parent="1" edge="1">
          <mxGeometry width="50" height="50" relative="1" as="geometry">
            <mxPoint x="350" y="264" as="sourcePoint" />
            <mxPoint x="390" y="266" as="targetPoint" />
            <Array as="points">
              <mxPoint x="350" y="266" />
            </Array>
          </mxGeometry>
        </mxCell>
        <mxCell id="6ZzgKOErrP5oYCzK0KQO-9" value="A1" style="text;html=1;strokeColor=none;fillColor=none;align=center;verticalAlign=middle;whiteSpace=wrap;rounded=0;" parent="1" vertex="1">
          <mxGeometry x="390" y="250" width="30" height="30" as="geometry" />
        </mxCell>
        <mxCell id="6ZzgKOErrP5oYCzK0KQO-10" value="A2" style="text;html=1;strokeColor=none;fillColor=none;align=center;verticalAlign=middle;whiteSpace=wrap;rounded=0;" parent="1" vertex="1">
          <mxGeometry x="390" y="280" width="30" height="30" as="geometry" />
        </mxCell>
        <mxCell id="6ZzgKOErrP5oYCzK0KQO-11" value="A3" style="text;html=1;strokeColor=none;fillColor=none;align=center;verticalAlign=middle;whiteSpace=wrap;rounded=0;" parent="1" vertex="1">
          <mxGeometry x="390" y="306" width="30" height="30" as="geometry" />
        </mxCell>
        <mxCell id="6ZzgKOErrP5oYCzK0KQO-12" value="19:15" style="text;html=1;strokeColor=none;fillColor=none;align=center;verticalAlign=middle;whiteSpace=wrap;rounded=0;" parent="1" vertex="1">
          <mxGeometry x="340" y="240" width="60" height="30" as="geometry" />
        </mxCell>
        <mxCell id="6ZzgKOErrP5oYCzK0KQO-13" value="24:20" style="text;html=1;strokeColor=none;fillColor=none;align=center;verticalAlign=middle;whiteSpace=wrap;rounded=0;" parent="1" vertex="1">
          <mxGeometry x="340" y="270" width="60" height="30" as="geometry" />
        </mxCell>
        <mxCell id="6ZzgKOErrP5oYCzK0KQO-14" value="11:7" style="text;html=1;strokeColor=none;fillColor=none;align=center;verticalAlign=middle;whiteSpace=wrap;rounded=0;" parent="1" vertex="1">
          <mxGeometry x="355" y="300" width="30" height="30" as="geometry" />
        </mxCell>
        <mxCell id="6ZzgKOErrP5oYCzK0KQO-16" value="" style="rounded=1;whiteSpace=wrap;html=1;" parent="1" vertex="1">
          <mxGeometry x="390" y="-50" width="60" height="220" as="geometry" />
        </mxCell>
        <mxCell id="6ZzgKOErrP5oYCzK0KQO-17" value="Zero" style="text;html=1;strokeColor=none;fillColor=none;align=center;verticalAlign=middle;whiteSpace=wrap;rounded=0;" parent="1" vertex="1">
          <mxGeometry x="382.5" y="130" width="45" height="30" as="geometry" />
        </mxCell>
        <mxCell id="6ZzgKOErrP5oYCzK0KQO-18" value="op" style="text;html=1;strokeColor=none;fillColor=none;align=center;verticalAlign=middle;whiteSpace=wrap;rounded=0;" parent="1" vertex="1">
          <mxGeometry x="390" y="70" width="20" height="30" as="geometry" />
        </mxCell>
        <mxCell id="6ZzgKOErrP5oYCzK0KQO-19" value="funct3" style="text;html=1;strokeColor=none;fillColor=none;align=center;verticalAlign=middle;whiteSpace=wrap;rounded=0;" parent="1" vertex="1">
          <mxGeometry x="390" y="90" width="40" height="30" as="geometry" />
        </mxCell>
        <mxCell id="6ZzgKOErrP5oYCzK0KQO-20" value="funct7b5" style="text;html=1;strokeColor=none;fillColor=none;align=center;verticalAlign=middle;whiteSpace=wrap;rounded=0;" parent="1" vertex="1">
          <mxGeometry x="390" y="110" width="50" height="30" as="geometry" />
        </mxCell>
        <mxCell id="6ZzgKOErrP5oYCzK0KQO-23" value="" style="endArrow=none;html=1;rounded=0;edgeStyle=orthogonalEdgeStyle;endFill=0;entryX=0;entryY=0.75;entryDx=0;entryDy=0;exitX=1.002;exitY=0.337;exitDx=0;exitDy=0;exitPerimeter=0;" parent="1" source="pqKyCdqcijLwKparUM79-37" edge="1">
          <mxGeometry width="50" height="50" relative="1" as="geometry">
            <mxPoint x="780" y="290" as="sourcePoint" />
            <mxPoint x="390" y="146" as="targetPoint" />
            <Array as="points">
              <mxPoint x="790" y="294" />
              <mxPoint x="790" y="190" />
              <mxPoint x="370" y="190" />
              <mxPoint x="370" y="146" />
            </Array>
          </mxGeometry>
        </mxCell>
        <mxCell id="6ZzgKOErrP5oYCzK0KQO-24" value="" style="endArrow=none;html=1;rounded=0;edgeStyle=orthogonalEdgeStyle;endFill=0;entryX=0;entryY=0.75;entryDx=0;entryDy=0;" parent="1" edge="1">
          <mxGeometry width="50" height="50" relative="1" as="geometry">
            <mxPoint x="350" y="124" as="sourcePoint" />
            <mxPoint x="390" y="126" as="targetPoint" />
            <Array as="points">
              <mxPoint x="350" y="126" />
            </Array>
          </mxGeometry>
        </mxCell>
        <mxCell id="6ZzgKOErrP5oYCzK0KQO-25" value="" style="endArrow=none;html=1;rounded=0;edgeStyle=orthogonalEdgeStyle;endFill=0;entryX=0;entryY=0.75;entryDx=0;entryDy=0;" parent="1" edge="1">
          <mxGeometry width="50" height="50" relative="1" as="geometry">
            <mxPoint x="350" y="104" as="sourcePoint" />
            <mxPoint x="390" y="106" as="targetPoint" />
            <Array as="points">
              <mxPoint x="350" y="106" />
            </Array>
          </mxGeometry>
        </mxCell>
        <mxCell id="6ZzgKOErrP5oYCzK0KQO-26" value="" style="endArrow=none;html=1;rounded=0;edgeStyle=orthogonalEdgeStyle;endFill=0;entryX=0;entryY=0.75;entryDx=0;entryDy=0;" parent="1" edge="1">
          <mxGeometry width="50" height="50" relative="1" as="geometry">
            <mxPoint x="350" y="90" as="sourcePoint" />
            <mxPoint x="390" y="86" as="targetPoint" />
            <Array as="points">
              <mxPoint x="350" y="86" />
            </Array>
          </mxGeometry>
        </mxCell>
        <mxCell id="6ZzgKOErrP5oYCzK0KQO-27" value="6:0" style="text;html=1;align=center;verticalAlign=middle;resizable=0;points=[];autosize=1;strokeColor=none;fillColor=none;" parent="1" vertex="1">
          <mxGeometry x="350" y="60" width="40" height="30" as="geometry" />
        </mxCell>
        <mxCell id="6ZzgKOErrP5oYCzK0KQO-28" value="14:12" style="text;html=1;align=center;verticalAlign=middle;resizable=0;points=[];autosize=1;strokeColor=none;fillColor=none;" parent="1" vertex="1">
          <mxGeometry x="345" y="80" width="50" height="30" as="geometry" />
        </mxCell>
        <mxCell id="6ZzgKOErrP5oYCzK0KQO-29" value="30" style="text;html=1;align=center;verticalAlign=middle;resizable=0;points=[];autosize=1;strokeColor=none;fillColor=none;" parent="1" vertex="1">
          <mxGeometry x="350" y="100" width="40" height="30" as="geometry" />
        </mxCell>
        <mxCell id="6ZzgKOErrP5oYCzK0KQO-31" value="Zero" style="text;html=1;align=center;verticalAlign=middle;resizable=0;points=[];autosize=1;strokeColor=none;fillColor=none;" parent="1" vertex="1">
          <mxGeometry x="750" y="270" width="50" height="30" as="geometry" />
        </mxCell>
        <mxCell id="6ZzgKOErrP5oYCzK0KQO-32" value="Control&lt;br&gt;Unit" style="text;html=1;strokeColor=none;fillColor=none;align=center;verticalAlign=middle;whiteSpace=wrap;rounded=0;" parent="1" vertex="1">
          <mxGeometry x="390" y="10" width="60" height="30" as="geometry" />
        </mxCell>
        <mxCell id="6ZzgKOErrP5oYCzK0KQO-33" value="" style="endArrow=none;html=1;rounded=0;edgeStyle=orthogonalEdgeStyle;strokeWidth=3;endFill=0;" parent="1" edge="1">
          <mxGeometry width="50" height="50" relative="1" as="geometry">
            <mxPoint x="350" y="280" as="sourcePoint" />
            <mxPoint x="350" y="90" as="targetPoint" />
            <Array as="points">
              <mxPoint x="350" y="90" />
            </Array>
          </mxGeometry>
        </mxCell>
        <mxCell id="6ZzgKOErrP5oYCzK0KQO-34" value="" style="endArrow=none;html=1;rounded=0;edgeStyle=orthogonalEdgeStyle;entryX=0.5;entryY=0;entryDx=0;entryDy=0;endFill=0;" parent="1" target="pqKyCdqcijLwKparUM79-65" edge="1">
          <mxGeometry width="50" height="50" relative="1" as="geometry">
            <mxPoint x="450" y="149.75" as="sourcePoint" />
            <mxPoint x="500" y="210" as="targetPoint" />
            <Array as="points">
              <mxPoint x="480" y="150" />
              <mxPoint x="480" y="220" />
              <mxPoint x="450" y="220" />
            </Array>
          </mxGeometry>
        </mxCell>
        <mxCell id="6ZzgKOErrP5oYCzK0KQO-36" value="RegWrite" style="text;html=1;strokeColor=none;fillColor=none;align=center;verticalAlign=middle;whiteSpace=wrap;rounded=0;" parent="1" vertex="1">
          <mxGeometry x="448" y="132" width="60" height="20" as="geometry" />
        </mxCell>
        <mxCell id="6ZzgKOErrP5oYCzK0KQO-37" value="" style="endArrow=none;html=1;rounded=0;edgeStyle=orthogonalEdgeStyle;entryX=0.498;entryY=0.238;entryDx=0;entryDy=0;entryPerimeter=0;endFill=0;exitX=0.993;exitY=0.798;exitDx=0;exitDy=0;exitPerimeter=0;" parent="1" source="6ZzgKOErrP5oYCzK0KQO-16" target="pqKyCdqcijLwKparUM79-6" edge="1">
          <mxGeometry width="50" height="50" relative="1" as="geometry">
            <mxPoint x="450" y="129.48" as="sourcePoint" />
            <mxPoint x="530" y="510" as="targetPoint" />
            <Array as="points">
              <mxPoint x="530" y="126" />
              <mxPoint x="530" y="510" />
              <mxPoint x="450" y="510" />
            </Array>
          </mxGeometry>
        </mxCell>
        <mxCell id="6ZzgKOErrP5oYCzK0KQO-38" value="ImmSrc[2:0]" style="text;html=1;align=center;verticalAlign=middle;resizable=0;points=[];autosize=1;strokeColor=none;fillColor=none;" parent="1" vertex="1">
          <mxGeometry x="440" y="102" width="90" height="30" as="geometry" />
        </mxCell>
        <mxCell id="6ZzgKOErrP5oYCzK0KQO-39" value="" style="endArrow=none;html=1;rounded=0;edgeStyle=orthogonalEdgeStyle;endFill=0;" parent="1" target="pqKyCdqcijLwKparUM79-39" edge="1">
          <mxGeometry width="50" height="50" relative="1" as="geometry">
            <mxPoint x="450" y="99.75" as="sourcePoint" />
            <mxPoint x="500" y="49.75" as="targetPoint" />
          </mxGeometry>
        </mxCell>
        <mxCell id="6ZzgKOErrP5oYCzK0KQO-40" value="" style="endArrow=none;html=1;rounded=0;edgeStyle=orthogonalEdgeStyle;endFill=0;" parent="1" edge="1">
          <mxGeometry width="50" height="50" relative="1" as="geometry">
            <mxPoint x="450" y="69.5" as="sourcePoint" />
            <mxPoint x="720" y="270" as="targetPoint" />
          </mxGeometry>
        </mxCell>
        <mxCell id="6ZzgKOErrP5oYCzK0KQO-41" value="" style="endArrow=none;html=1;rounded=0;edgeStyle=orthogonalEdgeStyle;entryX=0.5;entryY=0;entryDx=0;entryDy=0;endFill=0;" parent="1" target="pqKyCdqcijLwKparUM79-57" edge="1">
          <mxGeometry width="50" height="50" relative="1" as="geometry">
            <mxPoint x="450" y="39.5" as="sourcePoint" />
            <mxPoint x="500" y="-10.5" as="targetPoint" />
          </mxGeometry>
        </mxCell>
        <mxCell id="6ZzgKOErrP5oYCzK0KQO-42" value="" style="endArrow=none;html=1;rounded=0;edgeStyle=orthogonalEdgeStyle;entryX=0;entryY=0.5;entryDx=0;entryDy=0;endFill=0;" parent="1" target="pqKyCdqcijLwKparUM79-59" edge="1">
          <mxGeometry width="50" height="50" relative="1" as="geometry">
            <mxPoint x="450" y="9.5" as="sourcePoint" />
            <mxPoint x="500" y="-40.5" as="targetPoint" />
          </mxGeometry>
        </mxCell>
        <mxCell id="6ZzgKOErrP5oYCzK0KQO-43" value="" style="endArrow=none;html=1;rounded=0;edgeStyle=orthogonalEdgeStyle;endFill=0;" parent="1" target="pqKyCdqcijLwKparUM79-31" edge="1">
          <mxGeometry width="50" height="50" relative="1" as="geometry">
            <mxPoint x="450" y="-20.5" as="sourcePoint" />
            <mxPoint x="500" y="-70.5" as="targetPoint" />
            <Array as="points">
              <mxPoint x="520" y="-20" />
              <mxPoint x="520" y="-90" />
              <mxPoint x="-115" y="-90" />
            </Array>
          </mxGeometry>
        </mxCell>
        <mxCell id="6ZzgKOErrP5oYCzK0KQO-44" value="PCSrc" style="text;html=1;align=center;verticalAlign=middle;resizable=0;points=[];autosize=1;strokeColor=none;fillColor=none;" parent="1" vertex="1">
          <mxGeometry x="444" y="-43" width="60" height="30" as="geometry" />
        </mxCell>
        <mxCell id="6ZzgKOErrP5oYCzK0KQO-45" value="ResultSrc[1:0]" style="text;html=1;align=center;verticalAlign=middle;resizable=0;points=[];autosize=1;strokeColor=none;fillColor=none;" parent="1" vertex="1">
          <mxGeometry x="443" y="-13" width="100" height="30" as="geometry" />
        </mxCell>
        <mxCell id="6ZzgKOErrP5oYCzK0KQO-46" value="MemWrite" style="text;html=1;align=center;verticalAlign=middle;resizable=0;points=[];autosize=1;strokeColor=none;fillColor=none;" parent="1" vertex="1">
          <mxGeometry x="443" y="17" width="80" height="30" as="geometry" />
        </mxCell>
        <mxCell id="6ZzgKOErrP5oYCzK0KQO-47" value="ALUControl[2:0]" style="text;html=1;align=center;verticalAlign=middle;resizable=0;points=[];autosize=1;strokeColor=none;fillColor=none;" parent="1" vertex="1">
          <mxGeometry x="443" y="47" width="110" height="30" as="geometry" />
        </mxCell>
        <mxCell id="6ZzgKOErrP5oYCzK0KQO-48" value="ALUSrc" style="text;html=1;align=center;verticalAlign=middle;resizable=0;points=[];autosize=1;strokeColor=none;fillColor=none;" parent="1" vertex="1">
          <mxGeometry x="445" y="77" width="60" height="30" as="geometry" />
        </mxCell>
      </root>
    </mxGraphModel>
  </diagram>
</mxfile>
